<?xml version="1.0" encoding="UTF-8" standalone="no"?>
<!-- Created with Inkscape (http://www.inkscape.org/) -->

<svg
   xmlns:dc="http://purl.org/dc/elements/1.1/"
   xmlns:cc="http://creativecommons.org/ns#"
   xmlns:rdf="http://www.w3.org/1999/02/22-rdf-syntax-ns#"
   xmlns:svg="http://www.w3.org/2000/svg"
   xmlns="http://www.w3.org/2000/svg"
   xmlns:sodipodi="http://sodipodi.sourceforge.net/DTD/sodipodi-0.dtd"
   xmlns:inkscape="http://www.inkscape.org/namespaces/inkscape"
   width="256"
   height="256"
   viewBox="0 0 67.733335 67.733335"
   version="1.1"
   id="svg8"
   inkscape:version="0.92.4 (33fec40, 2019-01-16)"
   sodipodi:docname="anime.svg">
  <defs
     id="defs2" />
  <sodipodi:namedview
     id="base"
     pagecolor="#ffffff"
     bordercolor="#666666"
     borderopacity="1.0"
     inkscape:pageopacity="0.0"
     inkscape:pageshadow="2"
     inkscape:zoom="2.8"
     inkscape:cx="116.48808"
     inkscape:cy="142.55164"
     inkscape:document-units="mm"
     inkscape:current-layer="layer1"
     showgrid="false"
     units="px"
     inkscape:window-width="1244"
     inkscape:window-height="990"
     inkscape:window-x="676"
     inkscape:window-y="27"
     inkscape:window-maximized="0" />
  <metadata
     id="metadata5">
    <rdf:RDF>
      <cc:Work
         rdf:about="">
        <dc:format>image/svg+xml</dc:format>
        <dc:type
           rdf:resource="http://purl.org/dc/dcmitype/StillImage" />
        <dc:title />
      </cc:Work>
    </rdf:RDF>
  </metadata>
  <g
     inkscape:label="Layer 1"
     inkscape:groupmode="layer"
     id="layer1"
     transform="translate(0,-229.26665)">
    <g
       id="g830">
      <rect
         y="253.87289"
         x="4.7625008"
         height="18.520834"
         width="58.208332"
         id="rect820"
         style="fill:#201f1e;fill-opacity:1;stroke-width:0.26398382" />
      <g
         style="fill:none;fill-rule:evenodd;stroke-linecap:square"
         transform="matrix(0.05399655,0,0,0.03378429,6.8683958,259.0792)"
         id="anime-mini-logo">
        <path
           style="stroke:#f6f4f2;stroke-width:40"
           inkscape:connector-curvature="0"
           id="Path-18-Copy-66"
           d="m 30,20 h 130 c 9.996,0 10,40 10,60 V 220 H 41 c -11.004,0 -11,-40 -11,-60 0,-20 -0.004,-60 10,-60 h 110" />
        <path
           style="stroke:#f6f4f2;stroke-width:40"
           inkscape:connector-curvature="0"
           id="Path-18-Copy-67"
           d="m 850,140 h 110 c 10,0 10,-40 10,-60 0,-20 0,-60 -10,-60 H 840 c -10,0 -10,40 -10,60 v 80 c 0,20 0,60 10,60 h 130" />
        <path
           style="stroke:#f6f4f2;stroke-width:40"
           inkscape:connector-curvature="0"
           id="Path-18-Copy-68"
           d="M 430,100 V 220" />
        <path
           style="stroke:#f6f4f2;stroke-width:40"
           inkscape:connector-curvature="0"
           id="Path-18-Copy-69"
           d="m 430,20.2 v 0.6" />
        <path
           style="stroke:#f6f4f2;stroke-width:40"
           inkscape:connector-curvature="0"
           id="Path-18-Copy-71"
           d="M 370,220 V 80 c 0,-20 0,-60 -10,-60 H 240 c -10,0 -10,40 -10,60 v 140" />
        <path
           style="stroke:#f6f4f2;stroke-width:40"
           inkscape:connector-curvature="0"
           id="Path-18-Copy-74"
           d="M 770,220 V 80 c 0,-20 0,-60 -10,-60 H 500 c -10,0 -10,40 -10,60 v 140" />
      </g>
    </g>
  </g>
  <style
     id="style915"
     type="text/css">
	.st0{fill:#DD0031;}
	.st1{fill:#C3002F;}
	.st2{fill:#FFFFFF;}
</style>
</svg>
