<?xml version="1.0" encoding="UTF-8" standalone="no"?>
<!-- Created with Inkscape (http://www.inkscape.org/) -->

<svg
   xmlns:dc="http://purl.org/dc/elements/1.1/"
   xmlns:cc="http://creativecommons.org/ns#"
   xmlns:rdf="http://www.w3.org/1999/02/22-rdf-syntax-ns#"
   xmlns:svg="http://www.w3.org/2000/svg"
   xmlns="http://www.w3.org/2000/svg"
   xmlns:sodipodi="http://sodipodi.sourceforge.net/DTD/sodipodi-0.dtd"
   xmlns:inkscape="http://www.inkscape.org/namespaces/inkscape"
   width="256"
   height="256"
   viewBox="0 0 67.733335 67.733335"
   version="1.1"
   id="svg8"
   inkscape:version="0.92.4 (33fec40, 2019-01-16)"
   sodipodi:docname="skills_css3.svg">
  <defs
     id="defs2" />
  <sodipodi:namedview
     id="base"
     pagecolor="#ffffff"
     bordercolor="#666666"
     borderopacity="1.0"
     inkscape:pageopacity="0.0"
     inkscape:pageshadow="2"
     inkscape:zoom="1.4"
     inkscape:cx="82.621627"
     inkscape:cy="141.43878"
     inkscape:document-units="mm"
     inkscape:current-layer="layer1"
     showgrid="false"
     units="px"
     inkscape:window-width="1920"
     inkscape:window-height="990"
     inkscape:window-x="0"
     inkscape:window-y="27"
     inkscape:window-maximized="1" />
  <metadata
     id="metadata5">
    <rdf:RDF>
      <cc:Work
         rdf:about="">
        <dc:format>image/svg+xml</dc:format>
        <dc:type
           rdf:resource="http://purl.org/dc/dcmitype/StillImage" />
        <dc:title></dc:title>
      </cc:Work>
    </rdf:RDF>
  </metadata>
  <g
     inkscape:label="Layer 1"
     inkscape:groupmode="layer"
     id="layer1"
     transform="translate(0,-229.26665)">
    <g
       transform="matrix(0.10335286,0,0,0.10335286,-4.8906558,208.11216)"
       id="layer1-6"
       inkscape:label="Calque 1">
      <g
         transform="translate(119,276.3622)"
         id="g3013">
        <polygon
           style="fill:#264de4"
           points="404.321,470.819 255.778,512 107.644,470.877 74.633,100.62 437.367,100.62 "
           id="polygon2989" />
        <polygon
           style="fill:#2965f1"
           points="256,130.894 256,480.523 376.03,447.246 404.27,130.894 "
           id="polygon2991" />
        <polygon
           style="fill:#ebebeb"
           points="256,313.627 256,268.217 150.31,268.217 154.38,313.627 "
           id="polygon2993" />
        <polygon
           style="fill:#ebebeb"
           points="255.843,176.305 142.132,176.305 146.26,221.716 256,221.716 256,176.305 "
           id="polygon2995" />
        <polygon
           style="fill:#ebebeb"
           points="156.409,336.333 162.771,407.634 255.791,433.457 256,433.399 256,386.153 255.801,386.206 205.227,372.55 201.994,336.333 177.419,336.333 "
           id="polygon2997" />
        <path
           inkscape:connector-curvature="0"
           d="m 160,0 h 55 v 23 h -32 v 23 h 32 v 23 h -55 z"
           id="path2999" />
        <path
           inkscape:connector-curvature="0"
           d="m 226,0 h 55 v 20 h -32 v 4 h 32 V 70 H 226 V 49 h 32 v -4 h -32 z"
           id="path3001" />
        <path
           inkscape:connector-curvature="0"
           d="m 292,0 h 55 v 20 h -32 v 4 h 32 V 70 H 292 V 49 h 32 v -4 h -32 z"
           id="path3003" />
        <polygon
           style="fill:#ffffff"
           points="360.291,280.411 361.399,268.217 369.597,176.305 255.843,176.305 255.843,221.716 319.831,221.716 315.699,268.217 255.843,268.217 255.843,313.627 311.761,313.627 306.49,372.521 255.843,386.191 255.843,433.435 348.937,407.634 349.62,399.962 "
           id="polygon3005" />
      </g>
    </g>
  </g>
  <style
     id="style915"
     type="text/css">
	.st0{fill:#DD0031;}
	.st1{fill:#C3002F;}
	.st2{fill:#FFFFFF;}
</style>
</svg>
