<?xml version="1.0" encoding="UTF-8" standalone="no"?>
<!-- Created with Inkscape (http://www.inkscape.org/) -->

<svg
   xmlns:dc="http://purl.org/dc/elements/1.1/"
   xmlns:cc="http://creativecommons.org/ns#"
   xmlns:rdf="http://www.w3.org/1999/02/22-rdf-syntax-ns#"
   xmlns:svg="http://www.w3.org/2000/svg"
   xmlns="http://www.w3.org/2000/svg"
   xmlns:sodipodi="http://sodipodi.sourceforge.net/DTD/sodipodi-0.dtd"
   xmlns:inkscape="http://www.inkscape.org/namespaces/inkscape"
   width="256"
   height="256"
   viewBox="0 0 67.733335 67.733335"
   version="1.1"
   id="svg8"
   inkscape:version="0.92.4 (33fec40, 2019-01-16)"
   sodipodi:docname="Adobe_Illustrator_CC_icon.svg">
  <defs
     id="defs2" />
  <sodipodi:namedview
     id="base"
     pagecolor="#ffffff"
     bordercolor="#666666"
     borderopacity="1.0"
     inkscape:pageopacity="0.0"
     inkscape:pageshadow="2"
     inkscape:zoom="1.4"
     inkscape:cx="-15.235516"
     inkscape:cy="141.43878"
     inkscape:document-units="mm"
     inkscape:current-layer="layer1"
     showgrid="false"
     units="px"
     inkscape:window-width="1920"
     inkscape:window-height="990"
     inkscape:window-x="0"
     inkscape:window-y="27"
     inkscape:window-maximized="1" />
  <metadata
     id="metadata5">
    <rdf:RDF>
      <cc:Work
         rdf:about="">
        <dc:format>image/svg+xml</dc:format>
        <dc:type
           rdf:resource="http://purl.org/dc/dcmitype/StillImage" />
        <dc:title></dc:title>
      </cc:Work>
    </rdf:RDF>
  </metadata>
  <g
     inkscape:label="Layer 1"
     inkscape:groupmode="layer"
     id="layer1"
     transform="translate(0,-229.26665)">
    <g
       id="g928"
       transform="matrix(0.22048611,0,0,0.22048611,7.4083335,237.33644)">
	<path
   id="path922"
   d="M 10,10 H 230 V 224 H 10 Z"
   class="st0"
   inkscape:connector-curvature="0"
   style="fill:#261300" />

	<path
   id="path924"
   d="M 0,0 V 234 H 240 V 0 Z M 10,10 H 230 V 224 H 10 Z"
   class="st1"
   inkscape:connector-curvature="0"
   style="fill:#ff7c00" />

	<path
   id="path926"
   d="m 83.3,132.5 -7.9,30 c -0.2,0.8 -0.5,1 -1.5,1 H 59.2 c -1,0 -1.2,-0.3 -1,-1.5 L 86.6,62.6 c 0.5,-1.8 0.8,-3.4 1,-8.3 0,-0.7 0.3,-1 0.8,-1 h 21 c 0.7,0 1,0.2 1.2,1 l 31.8,107.9 c 0.2,0.8 0,1.3 -0.8,1.3 H 125 c -0.8,0 -1.3,-0.2 -1.5,-0.9 l -8.3,-30.1 z m 27.8,-16.2 C 108.3,105.2 101.7,81 99.2,69.3 H 99 c -2.1,11.7 -7.4,31.5 -11.6,47 z m 45,-55.6 c 0,-6.4 4.5,-10.2 10.2,-10.2 6.1,0 10.2,4.1 10.2,10.2 0,6.6 -4.3,10.2 -10.4,10.2 -5.8,0 -10,-3.6 -10,-10.2 z m 1.2,22.7 c 0,-0.8 0.3,-1.2 1.2,-1.2 h 15.7 c 0.8,0 1.2,0.3 1.2,1.2 v 78.9 c 0,0.8 -0.2,1.2 -1.2,1.2 h -15.5 c -1,0 -1.3,-0.5 -1.3,-1.3 V 83.4 Z"
   class="st1"
   inkscape:connector-curvature="0"
   style="fill:#ff7c00" />

</g>
  </g>
  <style
     id="style915"
     type="text/css">
	.st0{fill:#DD0031;}
	.st1{fill:#C3002F;}
	.st2{fill:#FFFFFF;}
</style>
  <style
     id="style920"
     type="text/css">
	.st0{fill:#261300;}
	.st1{fill:#FF7C00;}
</style>
</svg>
