<?xml version="1.0" encoding="UTF-8" standalone="no"?>
<!-- Created with Inkscape (http://www.inkscape.org/) -->

<svg
   xmlns:dc="http://purl.org/dc/elements/1.1/"
   xmlns:cc="http://creativecommons.org/ns#"
   xmlns:rdf="http://www.w3.org/1999/02/22-rdf-syntax-ns#"
   xmlns:svg="http://www.w3.org/2000/svg"
   xmlns="http://www.w3.org/2000/svg"
   xmlns:sodipodi="http://sodipodi.sourceforge.net/DTD/sodipodi-0.dtd"
   xmlns:inkscape="http://www.inkscape.org/namespaces/inkscape"
   width="256"
   height="256"
   viewBox="0 0 67.733335 67.733335"
   version="1.1"
   id="svg8"
   inkscape:version="0.92.4 (33fec40, 2019-01-16)"
   sodipodi:docname="skills_js.svg">
  <defs
     id="defs2" />
  <sodipodi:namedview
     id="base"
     pagecolor="#ffffff"
     bordercolor="#666666"
     borderopacity="1.0"
     inkscape:pageopacity="0.0"
     inkscape:pageshadow="2"
     inkscape:zoom="1.4"
     inkscape:cx="-15.235516"
     inkscape:cy="141.43878"
     inkscape:document-units="mm"
     inkscape:current-layer="layer1"
     showgrid="false"
     units="px"
     inkscape:window-width="1920"
     inkscape:window-height="990"
     inkscape:window-x="0"
     inkscape:window-y="27"
     inkscape:window-maximized="1" />
  <metadata
     id="metadata5">
    <rdf:RDF>
      <cc:Work
         rdf:about="">
        <dc:format>image/svg+xml</dc:format>
        <dc:type
           rdf:resource="http://purl.org/dc/dcmitype/StillImage" />
        <dc:title></dc:title>
      </cc:Work>
    </rdf:RDF>
  </metadata>
  <g
     inkscape:label="Layer 1"
     inkscape:groupmode="layer"
     id="layer1"
     transform="translate(0,-229.26665)">
    <g
       id="g846"
       transform="matrix(0.12605801,0,0,0.12605801,13.38224,234.77026)">
	<polygon
   id="polygon822"
   points="40.845,401.254 13.775,97.632 311.225,97.632 284.127,401.205 162.318,434.975 "
   style="fill:#efc725" />

	<polygon
   id="polygon824"
   points="260.678,381.5 283.836,122.083 162.25,122.083 162.25,408.787 "
   style="fill:#fbde34" />

	<polygon
   id="polygon826"
   points="80.527,290.575 85.744,349.043 162.021,370.219 162.193,370.17 162.193,331.426 162.031,331.473 120.559,320.272 117.906,290.575 97.756,290.575 "
   style="fill:#ebebeb" />

	<polygon
   id="polygon828"
   points="167.209,136.454 93.065,136.454 90.311,163.903 81.559,261.938 80.651,271.937 90.686,271.937 167.209,271.937 167.209,234.7 121.355,234.7 126.732,176.258 167.312,175.177 "
   style="fill:#ebebeb" />

	<polygon
   id="polygon830"
   points="248.623,216.079 242.109,144.133 167.129,136.437 166.957,136.485 166.957,175.229 167.12,175.183 207.791,177.632 211.242,216.079 231.393,216.079 "
   style="fill:#ffffff" />

	<polyline
   id="polyline832"
   points="244.784,175.343 241.593,136.454 162.99,136.454 162.99,160.606 162.99,175.246 162.99,175.343    244.784,175.343  "
   style="fill:#ffffff" />

	<polygon
   id="polygon834"
   points="162.064,370.201 238.404,349.043 238.963,342.752 247.715,244.717 248.623,234.718 238.588,234.718 162.064,234.718 162.064,271.954 207.918,271.954 203.596,320.247 162.064,331.459 "
   style="fill:#ffffff" />

	<path
   id="path836"
   d="M 240,173.693"
   inkscape:connector-curvature="0"
   style="fill:#ffffff" />

	<g
   id="g842">
		<polygon
   id="polygon838"
   points="163.049,56.165 188.719,56.165 163.049,28.306 163.049,15.025 214.945,15.025 214.945,30.571 190.256,30.571 215.932,58.431 215.932,71.691 163.049,71.691 "
   style="fill:#151515" />

		<path
   id="path840"
   d="M 153.631,15.05 V 71.667 H 108.088 V 52.953 h 26.613 V 15.05 h 18.928 z"
   inkscape:connector-curvature="0"
   style="fill:#020202" />

	</g>

	<path
   id="path844"
   d="M 239.51,173.693"
   inkscape:connector-curvature="0"
   style="fill:#ffffff" />

</g>
  </g>
  <style
     id="style915"
     type="text/css">
	.st0{fill:#DD0031;}
	.st1{fill:#C3002F;}
	.st2{fill:#FFFFFF;}
</style>
</svg>
