<?xml version="1.0" encoding="UTF-8" standalone="no"?>
<!-- Created with Inkscape (http://www.inkscape.org/) -->

<svg
   xmlns:dc="http://purl.org/dc/elements/1.1/"
   xmlns:cc="http://creativecommons.org/ns#"
   xmlns:rdf="http://www.w3.org/1999/02/22-rdf-syntax-ns#"
   xmlns:svg="http://www.w3.org/2000/svg"
   xmlns="http://www.w3.org/2000/svg"
   xmlns:xlink="http://www.w3.org/1999/xlink"
   xmlns:sodipodi="http://sodipodi.sourceforge.net/DTD/sodipodi-0.dtd"
   xmlns:inkscape="http://www.inkscape.org/namespaces/inkscape"
   width="256"
   height="256"
   viewBox="0 0 67.733335 67.733335"
   version="1.1"
   id="svg8"
   inkscape:version="0.92.4 (33fec40, 2019-01-16)"
   sodipodi:docname="skills_less.svg">
  <defs
     id="defs2">
    <linearGradient
       gradientUnits="userSpaceOnUse"
       id="WhiteTransparent">
      <stop
         offset="0"
         style="stop-color:#ffffff;stop-opacity:1"
         id="stop7" />
      <stop
         offset="1"
         style="stop-color:#ffffff;stop-opacity:0"
         id="stop9" />
    </linearGradient>
    <linearGradient
       gradientUnits="userSpaceOnUse"
       xlink:href="#WhiteTransparent"
       id="liquidSpecular"
       y2="76"
       x2="0"
       y1="128"
       x1="0" />
    <linearGradient
       gradientUnits="userSpaceOnUse"
       xlink:href="#WhiteTransparent"
       id="sideSpecular"
       y2="40"
       x2="60"
       y1="20"
       x1="80" />
    <clipPath
       id="clipoutline1">
      <path
         id="outline1"
         d="M 54.1,12.5 12.9,54.7 C -2.7,70.3 23,69 32.3,74.9 36.6,77.7 18.5,81.3 22.2,85 c 3.6,3.7 21.7,7.1 25.3,10.7 3.6,3.7 -7.3,7.6 -3.7,11.3 3.5,3.7 11.9,0.2 13.4,8.6 1.1,6.2 15.4,3.1 21.8,-2.2 4,-3.4 -6.9,-3.4 -3.3,-7.1 9,-9.1 17,-4.1 20.3,-12.5 1.8,-4.5 -13.6,-7.7 -9.5,-10.6 9.8,-6.9 45.8,-10.4 29.2,-27 L 73,12.5 c -5.3,-5 -14,-5 -18.9,0 z m -9.9,64.7 c 0.9,0 30.8,4 19.3,7.1 -4.4,1.2 -24.6,-7.1 -19.3,-7.1 z m 57.2,16.6 c 0,2.1 16.3,3.3 15.4,-0.5 -1.3,-6.4 -13.6,-5.9 -15.4,0.5 z m -69.5,11.1 c 3.7,3.2 9.3,-0.7 11.1,-5.2 -3.6,-4.7 -16.9,0.3 -11.1,5.2 z m 67.5,-6.7 c -4.6,4.2 0.8,8.6 5.3,5.7 1.2,-0.8 -0.1,-4.7 -5.3,-5.7 z" />
    </clipPath>
    <linearGradient
       gradientUnits="userSpaceOnUse"
       xlink:href="#linearGradient5785"
       id="linearGradient9175"
       y2="40"
       x2="60"
       y1="20"
       x1="82.118591" />
    <linearGradient
       gradientUnits="userSpaceOnUse"
       id="linearGradient5785">
      <stop
         offset="0"
         style="stop-color:#c0cdf9;stop-opacity:1"
         id="stop5787" />
      <stop
         offset="1"
         style="stop-color:#07092d;stop-opacity:0.28804347"
         id="stop5789" />
    </linearGradient>
    <filter
       color-interpolation-filters="sRGB"
       id="filter8490">
      <feGaussianBlur
         inkscape:collect="always"
         stdDeviation="2.4163949"
         id="feGaussianBlur8492" />
    </filter>
    <filter
       color-interpolation-filters="sRGB"
       id="filter6017-3">
      <feGaussianBlur
         inkscape:collect="always"
         stdDeviation="0.80546496"
         id="feGaussianBlur6019-9" />
    </filter>
    <filter
       color-interpolation-filters="sRGB"
       id="filter6031-0">
      <feGaussianBlur
         inkscape:collect="always"
         stdDeviation="3.4903482"
         id="feGaussianBlur6033-8" />
    </filter>
    <clipPath
       id="clipPath9086-1">
      <use
         xlink:href="#outline1"
         height="300"
         width="400"
         y="0"
         x="0"
         style="opacity:0.25;fill:#ffffff;fill-opacity:1"
         id="use9088-0"
         transform="translate(1.0095461e-6,0)" />
    </clipPath>
    <filter
       color-interpolation-filters="sRGB"
       id="filter8490-0">
      <feGaussianBlur
         inkscape:collect="always"
         stdDeviation="2.4163949"
         id="feGaussianBlur8492-5" />
    </filter>
    <linearGradient
       gradientTransform="matrix(1.009184,0,0,1.009184,-0.3890738,-0.3831933)"
       gradientUnits="userSpaceOnUse"
       xlink:href="#WhiteTransparent"
       id="shinySpecular-0"
       y2="60"
       x2="58"
       y1="35"
       x1="33" />
    <linearGradient
       gradientUnits="userSpaceOnUse"
       xlink:href="#WhiteTransparent"
       id="IcecapTip-0"
       y2="50"
       x2="90"
       y1="20"
       x1="60" />
    <radialGradient
       gradientTransform="matrix(1.5700516,0,0,1.0509301,-75.500107,-22.095908)"
       gradientUnits="userSpaceOnUse"
       xlink:href="#WhiteTransparent"
       id="radialGradient9177-1"
       fy="250.89737"
       fx="116.31038"
       r="30.599579"
       cy="250.89737"
       cx="116.31038" />
    <radialGradient
       gradientTransform="matrix(2.0032532,0,0,1.340898,-132.8752,-95.166065)"
       gradientUnits="userSpaceOnUse"
       xlink:href="#WhiteTransparent"
       id="radialGradient8574-0"
       fy="251.99396"
       fx="132.44434"
       r="30.599579"
       cy="251.99396"
       cx="132.44434" />
    <filter
       color-interpolation-filters="sRGB"
       id="filter8732-3"
       x="-0.078079157"
       width="1.1561583"
       y="-0.11422065"
       height="1.2284414">
      <feGaussianBlur
         inkscape:collect="always"
         stdDeviation="1.9579068"
         id="feGaussianBlur8734-5" />
    </filter>
    <radialGradient
       gradientTransform="matrix(1,0,0,0.4233577,0,97.164234)"
       gradientUnits="userSpaceOnUse"
       xlink:href="#WhiteTransparent"
       id="radialGradient8744-9"
       fy="168.5"
       fx="210.25"
       r="34.25"
       cy="168.5"
       cx="210.25" />
    <radialGradient
       gradientTransform="matrix(1,0,0,0.4233577,0,97.164234)"
       gradientUnits="userSpaceOnUse"
       xlink:href="#WhiteTransparent"
       id="radialGradient8768-6"
       fy="182.08189"
       fx="217.5"
       r="34.25"
       cy="182.08189"
       cx="217.5" />
    <filter
       color-interpolation-filters="sRGB"
       id="filter8764-9"
       x="-0.074262142"
       width="1.1485243"
       y="-0.1754123"
       height="1.3508246">
      <feGaussianBlur
         inkscape:collect="always"
         stdDeviation="2.1195652"
         id="feGaussianBlur8766-2" />
    </filter>
    <linearGradient
       gradientUnits="userSpaceOnUse"
       xlink:href="#WhiteTransparent"
       id="linearGradient8912-9"
       y2="201.5"
       x2="231.75"
       y1="195.1875"
       x1="231.625" />
    <linearGradient
       gradientUnits="userSpaceOnUse"
       xlink:href="#WhiteTransparent"
       id="linearGradient8910-3"
       y2="200.07138"
       x2="231.37646"
       y1="195.62132"
       x1="231.37646" />
    <filter
       color-interpolation-filters="sRGB"
       id="filter8906-3"
       x="-0.085441329"
       width="1.1708827"
       y="-0.27823201"
       height="1.556464">
      <feGaussianBlur
         inkscape:collect="always"
         stdDeviation="0.56515877"
         id="feGaussianBlur8908-7" />
    </filter>
    <radialGradient
       gradientTransform="matrix(1,0,0,0.1477455,0,174.56924)"
       gradientUnits="userSpaceOnUse"
       xlink:href="#WhiteTransparent"
       id="radialGradient8922-9"
       fy="204.83229"
       fx="228.21875"
       r="14.09375"
       cy="204.83229"
       cx="228.21875" />
    <filter
       color-interpolation-filters="sRGB"
       id="filter8980-1"
       x="-0.069862768"
       width="1.1397254"
       y="-0.47285891"
       height="1.9457178">
      <feGaussianBlur
         inkscape:collect="always"
         stdDeviation="0.82052366"
         id="feGaussianBlur8982-9" />
    </filter>
    <radialGradient
       gradientTransform="matrix(1,0,0,0.1477455,0,174.56924)"
       gradientUnits="userSpaceOnUse"
       xlink:href="#WhiteTransparent"
       id="radialGradient8994-0"
       fy="204.83229"
       fx="228.21875"
       r="14.09375"
       cy="204.83229"
       cx="228.21875" />
    <radialGradient
       gradientTransform="matrix(1,0,0,0.4070844,0,115.76014)"
       gradientUnits="userSpaceOnUse"
       xlink:href="#linearGradient8998-5"
       id="radialGradient9004-6"
       fy="187.86935"
       fx="89.875"
       r="22.75"
       cy="187.86935"
       cx="89.875" />
    <linearGradient
       id="linearGradient8998-5">
      <stop
         offset="0"
         style="stop-color:#ffffff;stop-opacity:0.33004925"
         id="stop9000-9" />
      <stop
         offset="1"
         style="stop-color:#ffffff;stop-opacity:0"
         id="stop9002-5" />
    </linearGradient>
    <radialGradient
       gradientTransform="matrix(1.1850746,-0.3283582,0.1228557,0.4433973,-45.068314,152.92161)"
       gradientUnits="userSpaceOnUse"
       xlink:href="#WhiteTransparent"
       id="radialGradient9046-1"
       fy="230.83626"
       fx="90.28125"
       r="10.46875"
       cy="230.83626"
       cx="90.28125" />
    <filter
       color-interpolation-filters="sRGB"
       id="filter9068-2"
       x="-0.076179281"
       width="1.1523587"
       y="-0.1655701"
       height="1.3311402">
      <feGaussianBlur
         inkscape:collect="always"
         stdDeviation="0.66458488"
         id="feGaussianBlur9070-7" />
    </filter>
    <radialGradient
       gradientTransform="matrix(1.7221535,0,0,1.6949765,-49.39526,-14.078057)"
       gradientUnits="userSpaceOnUse"
       xlink:href="#WhiteTransparent"
       id="radialGradient11553-3"
       fy="21.225746"
       fx="68.39994"
       r="54.783398"
       cy="21.225746"
       cx="68.39994" />
    <filter
       color-interpolation-filters="sRGB"
       id="filter9298-4">
      <feGaussianBlur
         inkscape:collect="always"
         stdDeviation="0.32610678"
         id="feGaussianBlur9300-4" />
    </filter>
    <linearGradient
       gradientUnits="userSpaceOnUse"
       xlink:href="#WhiteTransparent"
       id="linearGradient5905-4"
       y2="223.5"
       x2="153.5"
       y1="208.16444"
       x1="95.5" />
    <filter
       color-interpolation-filters="sRGB"
       id="filter5983-8"
       x="-0.082508981"
       width="1.165018"
       y="-0.12233575"
       height="1.2446715">
      <feGaussianBlur
         inkscape:collect="always"
         stdDeviation="3.6868363"
         id="feGaussianBlur5985-3" />
    </filter>
    <linearGradient
       gradientTransform="matrix(0.8852575,0,0,0.8852575,5.1772151,9.2293372)"
       gradientUnits="userSpaceOnUse"
       xlink:href="#linearGradient5793-9"
       id="linearGradient5801-2"
       y2="84.480316"
       x2="53.63158"
       y1="76.246338"
       x1="57.225197" />
    <linearGradient
       id="linearGradient5793-9">
      <stop
         offset="0"
         style="stop-color:#eeeeec;stop-opacity:1"
         id="stop5795-5" />
      <stop
         offset="1"
         style="stop-color:#eeeeec;stop-opacity:0"
         id="stop5797-4" />
    </linearGradient>
    <radialGradient
       gradientTransform="matrix(1.3515234,0,0,1.7175707,-63.705646,-153.95568)"
       gradientUnits="userSpaceOnUse"
       xlink:href="#WhiteTransparent"
       id="radialGradient5811-3"
       fy="214.55121"
       fx="181.22731"
       r="22.466398"
       cy="214.55121"
       cx="181.22731" />
    <filter
       color-interpolation-filters="sRGB"
       id="filter5845-5">
      <feGaussianBlur
         inkscape:collect="always"
         stdDeviation="1.2409356"
         id="feGaussianBlur5847-5" />
    </filter>
    <linearGradient
       gradientTransform="matrix(0.4927913,0,0,0.4927913,-6.0003885,-9.7225182)"
       gradientUnits="userSpaceOnUse"
       xlink:href="#WhiteTransparent"
       id="linearGradient5822-7"
       y2="187.65974"
       x2="82.754066"
       y1="180.47572"
       x1="73.712105" />
    <linearGradient
       id="linearGradient10981-3-9">
      <stop
         offset="0"
         style="stop-color:#729fcf;stop-opacity:1"
         id="stop10983-2-0" />
      <stop
         offset="1"
         style="stop-color:#729fcf;stop-opacity:0"
         id="stop10985-3-7" />
    </linearGradient>
    <filter
       color-interpolation-filters="sRGB"
       id="filter10997-7-2">
      <feGaussianBlur
         inkscape:collect="always"
         stdDeviation="2.7696726"
         id="feGaussianBlur10999-0-7" />
    </filter>
    <linearGradient
       gradientTransform="translate(-130.16572,-83.352786)"
       gradientUnits="userSpaceOnUse"
       xlink:href="#linearGradient10981-3-9"
       id="linearGradient1539"
       y2="144.5"
       x2="153.70045"
       y1="217.5"
       x1="180.81293" />
    <linearGradient
       gradientTransform="matrix(1,0,0,-1,0.14,777.638)"
       gradientUnits="userSpaceOnUse"
       id="SVGID_1_"
       y2="108.459"
       x2="464.315"
       y1="532.26703"
       x1="464.315">
      <stop
         offset="0.1497"
         style="stop-color:#2a4f84;stop-opacity:1"
         id="stop13" />
      <stop
         offset="0.38839999"
         style="stop-color:#294e82;stop-opacity:1"
         id="stop15" />
      <stop
         offset="1"
         style="stop-color:#172e4e;stop-opacity:1"
         id="stop17" />
    </linearGradient>
    <linearGradient
       gradientTransform="matrix(1,0,0,-1,-110.8195,852.7348)"
       gradientUnits="userSpaceOnUse"
       xlink:href="#SVGID_1_"
       id="linearGradient3057"
       y2="108.459"
       x2="464.315"
       y1="532.26703"
       x1="464.315" />
  </defs>
  <sodipodi:namedview
     id="base"
     pagecolor="#ffffff"
     bordercolor="#666666"
     borderopacity="1.0"
     inkscape:pageopacity="0.0"
     inkscape:pageshadow="2"
     inkscape:zoom="1.4"
     inkscape:cx="82.621627"
     inkscape:cy="141.43878"
     inkscape:document-units="mm"
     inkscape:current-layer="layer1"
     showgrid="false"
     units="px"
     inkscape:window-width="1920"
     inkscape:window-height="990"
     inkscape:window-x="0"
     inkscape:window-y="27"
     inkscape:window-maximized="1" />
  <metadata
     id="metadata5">
    <rdf:RDF>
      <cc:Work
         rdf:about="">
        <dc:format>image/svg+xml</dc:format>
        <dc:type
           rdf:resource="http://purl.org/dc/dcmitype/StillImage" />
        <dc:title></dc:title>
      </cc:Work>
    </rdf:RDF>
  </metadata>
  <g
     inkscape:label="Layer 1"
     inkscape:groupmode="layer"
     id="layer1"
     transform="translate(0,-229.26665)">
    <g
       id="layer1-7"
       transform="matrix(0.05506016,0,0,0.05506016,14.595611,233.82208)">
      <path
         style="fill:url(#linearGradient3057)"
         id="path19"
         d="m 778.7625,662.5338 c 0,44.958 -36.784,81.742 -81.742,81.742 H 9.9705001 C -34.9875,744.2758 -71.7715,707.4918 -71.7715,662.5338 V 402.20979 c 0,-44.958 36.784,-81.742 81.7420001,-81.742 H 697.0205 c 44.958,0 81.742,36.784 81.742,81.742 z"
         inkscape:connector-curvature="0" />
      <path
         style="fill:#f6f6f6"
         id="path21"
         d="m 635.0385,526.8108 c 35.909,12.563 53.856,34.088 53.856,64.543 0,20.046 -7.443,35.957 -22.296,47.725 -14.838,11.776 -36.005,19.084 -63.557,19.084 -27.552,0 -53.037,-7.983 -76.51,-21.088 0.254,-6.95 2.091,-14.575 5.463,-22.852 3.372,-8.277 7.363,-14.853 11.936,-19.656 21.573,11.211 40.346,16.826 56.281,16.826 7.531,0 13.358,-1.264 17.414,-3.809 4.063,-2.536 6.083,-5.94 6.083,-10.217 0,-8.039 -6.226,-14.051 -18.638,-18.058 l -22.296,-8.421 c -33.73,-12.293 -50.596,-32.323 -50.596,-60.146 0,-20.316 7.085,-36.418 21.255,-48.33 14.17,-11.895 33.269,-22.137 57.283,-22.137 11.88,0 24.96,1.67 39.272,5.01 14.297,3.348 26.042,11.594 35.218,16.125 0.541,7.49 -0.962,15.712 -4.452,24.665 -3.515,8.961 -7.824,15.306 -12.969,19.052 -22.685,-10.162 -41.562,-15.243 -56.686,-15.243 -5.415,0 -9.494,1.201 -12.357,3.618 -2.831,2.41 -4.223,5.478 -4.223,9.224 0,6.417 5.121,11.49 15.386,15.235 z"
         inkscape:connector-curvature="0" />
      <path
         style="fill:#f6f6f6"
         id="path23"
         d="m 455.6835,526.8108 c 35.909,12.563 53.848,34.088 53.848,64.543 0,20.046 -7.443,35.957 -22.272,47.725 -14.853,11.776 -36.028,19.084 -63.572,19.084 -27.528,0 -53.045,-7.983 -76.51,-21.088 0.254,-6.95 2.091,-14.575 5.47,-22.852 3.372,-8.277 7.347,-14.853 11.936,-19.656 21.597,11.211 40.362,16.826 56.289,16.826 7.538,0 13.366,-1.264 17.406,-3.809 4.048,-2.536 6.083,-5.94 6.083,-10.217 0,-8.039 -6.226,-14.051 -18.638,-18.058 l -22.281,-8.421 c -33.738,-12.293 -50.611,-32.323 -50.611,-60.146 0,-20.316 7.085,-36.418 21.27,-48.33 14.162,-11.895 33.253,-22.137 57.267,-22.137 11.872,0 24.984,1.67 39.265,5.01 14.313,3.348 26.042,11.594 35.225,16.125 0.541,7.49 -0.962,15.712 -4.452,24.665 -3.507,8.961 -7.824,15.306 -12.961,19.052 -22.694,-10.162 -41.571,-15.243 -56.702,-15.243 -5.407,0 -9.502,1.201 -12.349,3.618 -2.823,2.41 -4.23,5.478 -4.23,9.224 0,6.417 5.128,11.49 15.394,15.235 z"
         inkscape:connector-curvature="0" />
      <path
         style="fill:#f6f6f6"
         id="path25"
         d="m 324.8885,529.6408 c 0,-12.293 -1.956,-23.656 -5.868,-34.089 -3.904,-10.432 -9.51,-19.378 -16.794,-26.868 -7.292,-7.49 -16.126,-13.367 -26.511,-17.645 -10.401,-4.27 -22.074,-10.711 -35.027,-10.711 -15.387,0 -28.816,6.966 -40.282,12.317 -11.466,5.344 -20.913,12.691 -28.332,22.05 -7.435,9.366 -12.969,20.388 -16.611,33.086 -3.642,12.699 -5.463,26.534 -5.463,41.499 0,15.49 1.479,29.818 4.453,42.914 2.966,13.08 8.03,24.435 15.18,34.073 7.156,9.621 16.467,17.104 27.941,22.439 11.474,5.344 25.715,9.447 42.716,9.447 31.305,0 57.752,-9.065 79.348,-24.292 -2.139,-15.49 -7.657,-27.807 -16.523,-36.896 -11.029,4.142 -20.786,7.108 -29.246,8.93 -8.468,1.798 -15.935,2.704 -22.383,2.704 -12.906,0 -22.193,-3.284 -27.83,-9.915 -5.631,-6.608 -8.72,-14.424 -9.267,-26.296 h 105.265 c 3.477,-11.243 5.234,-26.438 5.234,-42.747 z m -110.9,2.776 c 0.802,-13.645 3.292,-28.244 7.435,-34.255 4.151,-6.019 10.504,-9.025 19.083,-9.025 8.835,0 15.466,3.197 19.879,9.614 4.422,6.417 6.631,19.346 6.631,29.237 l 0.008,4.429 z"
         inkscape:connector-curvature="0" />
      <path
         style="fill:#f6f6f6;stroke:#404040;stroke-width:5.15089989;stroke-miterlimit:10"
         id="path27"
         d="m 799.9545,559.0938 c -11.442,9.995 -18.082,24.379 -18.082,43.185 v 70.037 c 0,23.282 -7.157,40.99 -23.322,53.164 -16.15,12.158 -34.979,18.177 -56.472,18.757 l -12.738,-0.096 v -34.899 c 11.228,-3.276 15.839,-7.084 20.308,-11.41 8.095,-7.315 14.297,-19.219 14.297,-35.75 v -56.543 c 0.302,-19.219 1.781,-34.279 8.778,-45.157 7.022,-10.878 20.69,-20.388 41.006,-28.602 -22.439,-10.273 -37.508,-23.688 -45.189,-40.235 -4.516,-9.828 -4.604,-23.091 -4.604,-39.774 v -51.85201 c 0,-17.128 -5.606,-29.126 -12.5,-35.973 -4.484,-4.469 -9.701,-8.039 -22.113,-10.734 v -32.761 c 15.18,0.159 22.845,-0.015 31.687,0 13.613,-0.111 25.016,7.332 34.939,15.084 10.807,8.5 18.487,19.991 22.988,34.454 2.56,8.357 2.926,16.341 2.926,23.942 v 59.97101 c 0,21.182 6.258,36.927 16.953,47.208 6.028,5.964 14.536,11.418 29.143,16.341 v 27.091 c -12.944,3.579 -21.071,8.429 -28.005,14.552 z"
         inkscape:connector-curvature="0" />
      <path
         style="fill:#f6f6f6;stroke:#404040;stroke-width:5.15089989;stroke-miterlimit:10"
         id="path29"
         d="m -5.2445,320.46879 v 0.047 c -4.349,-0.024 -8.286,-0.04 -11.434,-0.032 -13.621,-0.119 -25.023,7.324 -34.938,15.084 -10.822,8.5 -20.085,19.593 -22.987,34.454 -1.654,8.715 -1.304,16.332 -1.304,23.942 v 59.97101 c 0,21.175 -7.88,36.911 -18.567,47.209 -6.02,5.963 -18.87,11.409 -33.485,16.331 v 27.09 c 12.953,3.571 25.422,8.405 32.339,14.544 11.45,10.003 19.703,24.396 19.703,43.2 v 70.037 c 0,23.267 5.551,40.991 21.7,53.148 16.15,12.15 34.971,18.193 56.464,18.781 l 14.384,-0.096 v -34.923 c -11.22,-3.284 -17.45299995,-7.093 -21.946,-11.403 -8.087,-7.324 -12.667,-19.219 -12.667,-35.742 v -56.551 c -0.31,-19.234 -3.411,-34.279 -10.416,-45.165 -7.005,-10.862 -20.674,-20.388 -41.014,-28.594 22.448,-10.281 37.508,-23.688 45.189,-40.227 4.525,-9.836 6.242,-23.099 6.242,-39.781 v -51.85201 c 0,-17.128 3.975,-29.126 10.862,-35.98 3.737,-3.721 10.3840001,-6.783 19.617,-9.263 l 14.599,0.102 c 0,-12.566 0,-20.432 0,-34.334 h -32.339 v 0.003 z"
         inkscape:connector-curvature="0" />
      <path
         style="fill:#f6f6f6"
         id="path31"
         d="m 129.3525,604.6078 h -10.933 c -11.887,0 -16.364,-6.25 -16.364,-18.805 V 355.05779 c 0,-13.875 -4.007,-23.616 -9.137,-29.229 -5.129,-5.598 -14.034,-5.542 -26.717,-5.542 h -24.69 l -2.91,-0.056 v 0.238 l -0.024,34.343 V 596.9678 c 0,19.258 4.326,33.349 12.022,42.318 7.705,8.953 20.722,13.422 39.074,13.422 12.691,0 27.131,-1.336 43.32,-4.016 0.811,-2.704 1.217,-8.492 1.217,-17.374 0,-8.906 -1.621,-17.788 -4.858,-26.71 z"
         inkscape:connector-curvature="0" />
    </g>
  </g>
  <style
     id="style915"
     type="text/css">
	.st0{fill:#DD0031;}
	.st1{fill:#C3002F;}
	.st2{fill:#FFFFFF;}
</style>
  <style
     id="style26"
     type="text/css" />
</svg>
