<?xml version="1.0" encoding="UTF-8" standalone="no"?>
<!-- Created with Inkscape (http://www.inkscape.org/) -->

<svg
   xmlns:dc="http://purl.org/dc/elements/1.1/"
   xmlns:cc="http://creativecommons.org/ns#"
   xmlns:rdf="http://www.w3.org/1999/02/22-rdf-syntax-ns#"
   xmlns:svg="http://www.w3.org/2000/svg"
   xmlns="http://www.w3.org/2000/svg"
   xmlns:xlink="http://www.w3.org/1999/xlink"
   xmlns:sodipodi="http://sodipodi.sourceforge.net/DTD/sodipodi-0.dtd"
   xmlns:inkscape="http://www.inkscape.org/namespaces/inkscape"
   width="256"
   height="256"
   viewBox="0 0 67.733335 67.733335"
   version="1.1"
   id="svg8"
   inkscape:version="0.92.4 (33fec40, 2019-01-16)"
   sodipodi:docname="skills_react.svg">
  <defs
     id="defs2">
    <linearGradient
       gradientUnits="userSpaceOnUse"
       id="WhiteTransparent">
      <stop
         offset="0"
         style="stop-color:#ffffff;stop-opacity:1"
         id="stop7" />
      <stop
         offset="1"
         style="stop-color:#ffffff;stop-opacity:0"
         id="stop9" />
    </linearGradient>
    <linearGradient
       gradientUnits="userSpaceOnUse"
       xlink:href="#WhiteTransparent"
       id="liquidSpecular"
       y2="76"
       x2="0"
       y1="128"
       x1="0" />
    <linearGradient
       gradientUnits="userSpaceOnUse"
       xlink:href="#WhiteTransparent"
       id="sideSpecular"
       y2="40"
       x2="60"
       y1="20"
       x1="80" />
    <clipPath
       id="clipoutline1">
      <path
         id="outline1"
         d="M 54.1,12.5 12.9,54.7 C -2.7,70.3 23,69 32.3,74.9 36.6,77.7 18.5,81.3 22.2,85 c 3.6,3.7 21.7,7.1 25.3,10.7 3.6,3.7 -7.3,7.6 -3.7,11.3 3.5,3.7 11.9,0.2 13.4,8.6 1.1,6.2 15.4,3.1 21.8,-2.2 4,-3.4 -6.9,-3.4 -3.3,-7.1 9,-9.1 17,-4.1 20.3,-12.5 1.8,-4.5 -13.6,-7.7 -9.5,-10.6 9.8,-6.9 45.8,-10.4 29.2,-27 L 73,12.5 c -5.3,-5 -14,-5 -18.9,0 z m -9.9,64.7 c 0.9,0 30.8,4 19.3,7.1 -4.4,1.2 -24.6,-7.1 -19.3,-7.1 z m 57.2,16.6 c 0,2.1 16.3,3.3 15.4,-0.5 -1.3,-6.4 -13.6,-5.9 -15.4,0.5 z m -69.5,11.1 c 3.7,3.2 9.3,-0.7 11.1,-5.2 -3.6,-4.7 -16.9,0.3 -11.1,5.2 z m 67.5,-6.7 c -4.6,4.2 0.8,8.6 5.3,5.7 1.2,-0.8 -0.1,-4.7 -5.3,-5.7 z" />
    </clipPath>
    <linearGradient
       gradientUnits="userSpaceOnUse"
       xlink:href="#linearGradient5785"
       id="linearGradient9175"
       y2="40"
       x2="60"
       y1="20"
       x1="82.118591" />
    <linearGradient
       gradientUnits="userSpaceOnUse"
       id="linearGradient5785">
      <stop
         offset="0"
         style="stop-color:#c0cdf9;stop-opacity:1"
         id="stop5787" />
      <stop
         offset="1"
         style="stop-color:#07092d;stop-opacity:0.28804347"
         id="stop5789" />
    </linearGradient>
    <filter
       color-interpolation-filters="sRGB"
       id="filter8490">
      <feGaussianBlur
         inkscape:collect="always"
         stdDeviation="2.4163949"
         id="feGaussianBlur8492" />
    </filter>
    <filter
       color-interpolation-filters="sRGB"
       id="filter6017-3">
      <feGaussianBlur
         inkscape:collect="always"
         stdDeviation="0.80546496"
         id="feGaussianBlur6019-9" />
    </filter>
    <filter
       color-interpolation-filters="sRGB"
       id="filter6031-0">
      <feGaussianBlur
         inkscape:collect="always"
         stdDeviation="3.4903482"
         id="feGaussianBlur6033-8" />
    </filter>
    <clipPath
       id="clipPath9086-1">
      <use
         xlink:href="#outline1"
         height="300"
         width="400"
         y="0"
         x="0"
         style="opacity:0.25;fill:#ffffff;fill-opacity:1"
         id="use9088-0"
         transform="translate(1.0095461e-6,0)" />
    </clipPath>
    <filter
       color-interpolation-filters="sRGB"
       id="filter8490-0">
      <feGaussianBlur
         inkscape:collect="always"
         stdDeviation="2.4163949"
         id="feGaussianBlur8492-5" />
    </filter>
    <linearGradient
       gradientTransform="matrix(1.009184,0,0,1.009184,-0.3890738,-0.3831933)"
       gradientUnits="userSpaceOnUse"
       xlink:href="#WhiteTransparent"
       id="shinySpecular-0"
       y2="60"
       x2="58"
       y1="35"
       x1="33" />
    <linearGradient
       gradientUnits="userSpaceOnUse"
       xlink:href="#WhiteTransparent"
       id="IcecapTip-0"
       y2="50"
       x2="90"
       y1="20"
       x1="60" />
    <radialGradient
       gradientTransform="matrix(1.5700516,0,0,1.0509301,-75.500107,-22.095908)"
       gradientUnits="userSpaceOnUse"
       xlink:href="#WhiteTransparent"
       id="radialGradient9177-1"
       fy="250.89737"
       fx="116.31038"
       r="30.599579"
       cy="250.89737"
       cx="116.31038" />
    <radialGradient
       gradientTransform="matrix(2.0032532,0,0,1.340898,-132.8752,-95.166065)"
       gradientUnits="userSpaceOnUse"
       xlink:href="#WhiteTransparent"
       id="radialGradient8574-0"
       fy="251.99396"
       fx="132.44434"
       r="30.599579"
       cy="251.99396"
       cx="132.44434" />
    <filter
       color-interpolation-filters="sRGB"
       id="filter8732-3"
       x="-0.078079157"
       width="1.1561583"
       y="-0.11422065"
       height="1.2284414">
      <feGaussianBlur
         inkscape:collect="always"
         stdDeviation="1.9579068"
         id="feGaussianBlur8734-5" />
    </filter>
    <radialGradient
       gradientTransform="matrix(1,0,0,0.4233577,0,97.164234)"
       gradientUnits="userSpaceOnUse"
       xlink:href="#WhiteTransparent"
       id="radialGradient8744-9"
       fy="168.5"
       fx="210.25"
       r="34.25"
       cy="168.5"
       cx="210.25" />
    <radialGradient
       gradientTransform="matrix(1,0,0,0.4233577,0,97.164234)"
       gradientUnits="userSpaceOnUse"
       xlink:href="#WhiteTransparent"
       id="radialGradient8768-6"
       fy="182.08189"
       fx="217.5"
       r="34.25"
       cy="182.08189"
       cx="217.5" />
    <filter
       color-interpolation-filters="sRGB"
       id="filter8764-9"
       x="-0.074262142"
       width="1.1485243"
       y="-0.1754123"
       height="1.3508246">
      <feGaussianBlur
         inkscape:collect="always"
         stdDeviation="2.1195652"
         id="feGaussianBlur8766-2" />
    </filter>
    <linearGradient
       gradientUnits="userSpaceOnUse"
       xlink:href="#WhiteTransparent"
       id="linearGradient8912-9"
       y2="201.5"
       x2="231.75"
       y1="195.1875"
       x1="231.625" />
    <linearGradient
       gradientUnits="userSpaceOnUse"
       xlink:href="#WhiteTransparent"
       id="linearGradient8910-3"
       y2="200.07138"
       x2="231.37646"
       y1="195.62132"
       x1="231.37646" />
    <filter
       color-interpolation-filters="sRGB"
       id="filter8906-3"
       x="-0.085441329"
       width="1.1708827"
       y="-0.27823201"
       height="1.556464">
      <feGaussianBlur
         inkscape:collect="always"
         stdDeviation="0.56515877"
         id="feGaussianBlur8908-7" />
    </filter>
    <radialGradient
       gradientTransform="matrix(1,0,0,0.1477455,0,174.56924)"
       gradientUnits="userSpaceOnUse"
       xlink:href="#WhiteTransparent"
       id="radialGradient8922-9"
       fy="204.83229"
       fx="228.21875"
       r="14.09375"
       cy="204.83229"
       cx="228.21875" />
    <filter
       color-interpolation-filters="sRGB"
       id="filter8980-1"
       x="-0.069862768"
       width="1.1397254"
       y="-0.47285891"
       height="1.9457178">
      <feGaussianBlur
         inkscape:collect="always"
         stdDeviation="0.82052366"
         id="feGaussianBlur8982-9" />
    </filter>
    <radialGradient
       gradientTransform="matrix(1,0,0,0.1477455,0,174.56924)"
       gradientUnits="userSpaceOnUse"
       xlink:href="#WhiteTransparent"
       id="radialGradient8994-0"
       fy="204.83229"
       fx="228.21875"
       r="14.09375"
       cy="204.83229"
       cx="228.21875" />
    <radialGradient
       gradientTransform="matrix(1,0,0,0.4070844,0,115.76014)"
       gradientUnits="userSpaceOnUse"
       xlink:href="#linearGradient8998-5"
       id="radialGradient9004-6"
       fy="187.86935"
       fx="89.875"
       r="22.75"
       cy="187.86935"
       cx="89.875" />
    <linearGradient
       id="linearGradient8998-5">
      <stop
         offset="0"
         style="stop-color:#ffffff;stop-opacity:0.33004925"
         id="stop9000-9" />
      <stop
         offset="1"
         style="stop-color:#ffffff;stop-opacity:0"
         id="stop9002-5" />
    </linearGradient>
    <radialGradient
       gradientTransform="matrix(1.1850746,-0.3283582,0.1228557,0.4433973,-45.068314,152.92161)"
       gradientUnits="userSpaceOnUse"
       xlink:href="#WhiteTransparent"
       id="radialGradient9046-1"
       fy="230.83626"
       fx="90.28125"
       r="10.46875"
       cy="230.83626"
       cx="90.28125" />
    <filter
       color-interpolation-filters="sRGB"
       id="filter9068-2"
       x="-0.076179281"
       width="1.1523587"
       y="-0.1655701"
       height="1.3311402">
      <feGaussianBlur
         inkscape:collect="always"
         stdDeviation="0.66458488"
         id="feGaussianBlur9070-7" />
    </filter>
    <radialGradient
       gradientTransform="matrix(1.7221535,0,0,1.6949765,-49.39526,-14.078057)"
       gradientUnits="userSpaceOnUse"
       xlink:href="#WhiteTransparent"
       id="radialGradient11553-3"
       fy="21.225746"
       fx="68.39994"
       r="54.783398"
       cy="21.225746"
       cx="68.39994" />
    <filter
       color-interpolation-filters="sRGB"
       id="filter9298-4">
      <feGaussianBlur
         inkscape:collect="always"
         stdDeviation="0.32610678"
         id="feGaussianBlur9300-4" />
    </filter>
    <linearGradient
       gradientUnits="userSpaceOnUse"
       xlink:href="#WhiteTransparent"
       id="linearGradient5905-4"
       y2="223.5"
       x2="153.5"
       y1="208.16444"
       x1="95.5" />
    <filter
       color-interpolation-filters="sRGB"
       id="filter5983-8"
       x="-0.082508981"
       width="1.165018"
       y="-0.12233575"
       height="1.2446715">
      <feGaussianBlur
         inkscape:collect="always"
         stdDeviation="3.6868363"
         id="feGaussianBlur5985-3" />
    </filter>
    <linearGradient
       gradientTransform="matrix(0.8852575,0,0,0.8852575,5.1772151,9.2293372)"
       gradientUnits="userSpaceOnUse"
       xlink:href="#linearGradient5793-9"
       id="linearGradient5801-2"
       y2="84.480316"
       x2="53.63158"
       y1="76.246338"
       x1="57.225197" />
    <linearGradient
       id="linearGradient5793-9">
      <stop
         offset="0"
         style="stop-color:#eeeeec;stop-opacity:1"
         id="stop5795-5" />
      <stop
         offset="1"
         style="stop-color:#eeeeec;stop-opacity:0"
         id="stop5797-4" />
    </linearGradient>
    <radialGradient
       gradientTransform="matrix(1.3515234,0,0,1.7175707,-63.705646,-153.95568)"
       gradientUnits="userSpaceOnUse"
       xlink:href="#WhiteTransparent"
       id="radialGradient5811-3"
       fy="214.55121"
       fx="181.22731"
       r="22.466398"
       cy="214.55121"
       cx="181.22731" />
    <filter
       color-interpolation-filters="sRGB"
       id="filter5845-5">
      <feGaussianBlur
         inkscape:collect="always"
         stdDeviation="1.2409356"
         id="feGaussianBlur5847-5" />
    </filter>
    <linearGradient
       gradientTransform="matrix(0.4927913,0,0,0.4927913,-6.0003885,-9.7225182)"
       gradientUnits="userSpaceOnUse"
       xlink:href="#WhiteTransparent"
       id="linearGradient5822-7"
       y2="187.65974"
       x2="82.754066"
       y1="180.47572"
       x1="73.712105" />
    <linearGradient
       id="linearGradient10981-3-9">
      <stop
         offset="0"
         style="stop-color:#729fcf;stop-opacity:1"
         id="stop10983-2-0" />
      <stop
         offset="1"
         style="stop-color:#729fcf;stop-opacity:0"
         id="stop10985-3-7" />
    </linearGradient>
    <filter
       color-interpolation-filters="sRGB"
       id="filter10997-7-2">
      <feGaussianBlur
         inkscape:collect="always"
         stdDeviation="2.7696726"
         id="feGaussianBlur10999-0-7" />
    </filter>
    <linearGradient
       gradientTransform="translate(-130.16572,-83.352786)"
       gradientUnits="userSpaceOnUse"
       xlink:href="#linearGradient10981-3-9"
       id="linearGradient1539"
       y2="144.5"
       x2="153.70045"
       y1="217.5"
       x1="180.81293" />
    <linearGradient
       gradientTransform="matrix(1,0,0,-1,0.14,777.638)"
       gradientUnits="userSpaceOnUse"
       id="SVGID_1_"
       y2="108.459"
       x2="464.315"
       y1="532.26703"
       x1="464.315">
      <stop
         offset="0.1497"
         style="stop-color:#2a4f84;stop-opacity:1"
         id="stop13" />
      <stop
         offset="0.38839999"
         style="stop-color:#294e82;stop-opacity:1"
         id="stop15" />
      <stop
         offset="1"
         style="stop-color:#172e4e;stop-opacity:1"
         id="stop17" />
    </linearGradient>
    <linearGradient
       gradientTransform="matrix(1,0,0,-1,-110.8195,852.7348)"
       gradientUnits="userSpaceOnUse"
       xlink:href="#SVGID_1_"
       id="linearGradient3057"
       y2="108.459"
       x2="464.315"
       y1="532.26703"
       x1="464.315" />
  </defs>
  <sodipodi:namedview
     id="base"
     pagecolor="#ffffff"
     bordercolor="#666666"
     borderopacity="1.0"
     inkscape:pageopacity="0.0"
     inkscape:pageshadow="2"
     inkscape:zoom="1.4"
     inkscape:cx="82.621627"
     inkscape:cy="141.43878"
     inkscape:document-units="mm"
     inkscape:current-layer="layer1"
     showgrid="false"
     units="px"
     inkscape:window-width="1920"
     inkscape:window-height="990"
     inkscape:window-x="0"
     inkscape:window-y="27"
     inkscape:window-maximized="1" />
  <metadata
     id="metadata5">
    <rdf:RDF>
      <cc:Work
         rdf:about="">
        <dc:format>image/svg+xml</dc:format>
        <dc:type
           rdf:resource="http://purl.org/dc/dcmitype/StillImage" />
        <dc:title></dc:title>
      </cc:Work>
    </rdf:RDF>
  </metadata>
  <g
     inkscape:label="Layer 1"
     inkscape:groupmode="layer"
     id="layer1"
     transform="translate(0,-229.26665)">
    <g
       id="g1744"
       transform="matrix(0.10786112,0,0,0.10786112,-11.542865,231.15789)">
	<path
   id="path1736"
   d="m 666.3,296.5 c 0,-32.5 -40.7,-63.3 -103.1,-82.4 14.4,-63.6 8,-114.2 -20.2,-130.4 -6.5,-3.8 -14.1,-5.6 -22.4,-5.6 v 22.3 c 4.6,0 8.3,0.9 11.4,2.6 13.6,7.8 19.5,37.5 14.9,75.7 -1.1,9.4 -2.9,19.3 -5.1,29.4 -19.6,-4.8 -41,-8.5 -63.5,-10.9 -13.5,-18.5 -27.5,-35.3 -41.6,-50 32.6,-30.3 63.2,-46.9 84,-46.9 V 78 c 0,0 0,0 0,0 -27.5,0 -63.5,19.6 -99.9,53.6 C 384.4,97.8 348.4,78.4 320.9,78.4 v 22.3 c 20.7,0 51.4,16.5 84,46.6 -14,14.7 -28,31.4 -41.3,49.9 -22.6,2.4 -44,6.1 -63.6,11 -2.3,-10 -4,-19.7 -5.2,-29 -4.7,-38.2 1.1,-67.9 14.6,-75.8 3,-1.8 6.9,-2.6 11.5,-2.6 V 78.5 c 0,0 0,0 0,0 -8.4,0 -16,1.8 -22.6,5.6 -28.1,16.2 -34.4,66.7 -19.9,130.1 -62.2,19.2 -102.7,49.9 -102.7,82.3 0,32.5 40.7,63.3 103.1,82.4 -14.4,63.6 -8,114.2 20.2,130.4 6.5,3.8 14.1,5.6 22.5,5.6 27.5,0 63.5,-19.6 99.9,-53.6 36.4,33.8 72.4,53.2 99.9,53.2 8.4,0 16,-1.8 22.6,-5.6 28.1,-16.2 34.4,-66.7 19.9,-130.1 62,-19.1 102.5,-49.9 102.5,-82.3 z M 536.1,229.8 c -3.7,12.9 -8.3,26.2 -13.5,39.5 -4.1,-8 -8.4,-16 -13.1,-24 -4.6,-8 -9.5,-15.8 -14.4,-23.4 14.2,2.1 27.9,4.7 41,7.9 z m -45.8,106.5 c -7.8,13.5 -15.8,26.3 -24.1,38.2 -14.9,1.3 -30,2 -45.2,2 -15.1,0 -30.2,-0.7 -45,-1.9 -8.3,-11.9 -16.4,-24.6 -24.2,-38 -7.6,-13.1 -14.5,-26.4 -20.8,-39.8 6.2,-13.4 13.2,-26.8 20.7,-39.9 7.8,-13.5 15.8,-26.3 24.1,-38.2 14.9,-1.3 30,-2 45.2,-2 15.1,0 30.2,0.7 45,1.9 8.3,11.9 16.4,24.6 24.2,38 7.6,13.1 14.5,26.4 20.8,39.8 -6.3,13.4 -13.2,26.8 -20.7,39.9 z m 32.3,-13 c 5.4,13.4 10,26.8 13.8,39.8 -13.1,3.2 -26.9,5.9 -41.2,8 4.9,-7.7 9.8,-15.6 14.4,-23.7 4.6,-8 8.9,-16.1 13,-24.1 z M 421.2,430 c -9.3,-9.6 -18.6,-20.3 -27.8,-32 9,0.4 18.2,0.7 27.5,0.7 9.4,0 18.7,-0.2 27.8,-0.7 -9,11.7 -18.3,22.4 -27.5,32 z m -74.4,-58.9 c -14.2,-2.1 -27.9,-4.7 -41,-7.9 3.7,-12.9 8.3,-26.2 13.5,-39.5 4.1,8 8.4,16 13.1,24 4.7,8 9.5,15.8 14.4,23.4 z M 420.7,163 c 9.3,9.6 18.6,20.3 27.8,32 -9,-0.4 -18.2,-0.7 -27.5,-0.7 -9.4,0 -18.7,0.2 -27.8,0.7 9,-11.7 18.3,-22.4 27.5,-32 z m -74,58.9 c -4.9,7.7 -9.8,15.6 -14.4,23.7 -4.6,8 -8.9,16 -13,24 -5.4,-13.4 -10,-26.8 -13.8,-39.8 13.1,-3.1 26.9,-5.8 41.2,-7.9 z m -90.5,125.2 c -35.4,-15.1 -58.3,-34.9 -58.3,-50.6 0,-15.7 22.9,-35.6 58.3,-50.6 8.6,-3.7 18,-7 27.7,-10.1 5.7,19.6 13.2,40 22.5,60.9 -9.2,20.8 -16.6,41.1 -22.2,60.6 -9.9,-3.1 -19.3,-6.5 -28,-10.2 z M 310,490 c -13.6,-7.8 -19.5,-37.5 -14.9,-75.7 1.1,-9.4 2.9,-19.3 5.1,-29.4 19.6,4.8 41,8.5 63.5,10.9 13.5,18.5 27.5,35.3 41.6,50 -32.6,30.3 -63.2,46.9 -84,46.9 -4.5,-0.1 -8.3,-1 -11.3,-2.7 z m 237.2,-76.2 c 4.7,38.2 -1.1,67.9 -14.6,75.8 -3,1.8 -6.9,2.6 -11.5,2.6 -20.7,0 -51.4,-16.5 -84,-46.6 14,-14.7 28,-31.4 41.3,-49.9 22.6,-2.4 44,-6.1 63.6,-11 2.3,10.1 4.1,19.8 5.2,29.1 z m 38.5,-66.7 c -8.6,3.7 -18,7 -27.7,10.1 -5.7,-19.6 -13.2,-40 -22.5,-60.9 9.2,-20.8 16.6,-41.1 22.2,-60.6 9.9,3.1 19.3,6.5 28.1,10.2 35.4,15.1 58.3,34.9 58.3,50.6 -0.1,15.7 -23,35.6 -58.4,50.6 z"
   inkscape:connector-curvature="0"
   style="fill:#61dafb" />

	<polygon
   id="polygon1738"
   points=""
   style="fill:#61dafb" />

	<circle
   id="circle1740"
   r="45.700001"
   cy="296.5"
   cx="420.89999"
   style="fill:#61dafb" />

	<polygon
   id="polygon1742"
   points=""
   style="fill:#61dafb" />

</g>
  </g>
  <style
     id="style915"
     type="text/css">
	.st0{fill:#DD0031;}
	.st1{fill:#C3002F;}
	.st2{fill:#FFFFFF;}
</style>
  <style
     id="style26"
     type="text/css" />
</svg>
