<?xml version="1.0" encoding="UTF-8" standalone="no"?>
<!-- Created with Inkscape (http://www.inkscape.org/) -->

<svg
   xmlns:dc="http://purl.org/dc/elements/1.1/"
   xmlns:cc="http://creativecommons.org/ns#"
   xmlns:rdf="http://www.w3.org/1999/02/22-rdf-syntax-ns#"
   xmlns:svg="http://www.w3.org/2000/svg"
   xmlns="http://www.w3.org/2000/svg"
   xmlns:xlink="http://www.w3.org/1999/xlink"
   xmlns:sodipodi="http://sodipodi.sourceforge.net/DTD/sodipodi-0.dtd"
   xmlns:inkscape="http://www.inkscape.org/namespaces/inkscape"
   width="256"
   height="256"
   viewBox="0 0 67.733335 67.733335"
   version="1.1"
   id="svg8"
   inkscape:version="0.92.4 (33fec40, 2019-01-16)"
   sodipodi:docname="skills_stylus.svg">
  <defs
     id="defs2">
    <linearGradient
       gradientUnits="userSpaceOnUse"
       id="WhiteTransparent">
      <stop
         offset="0"
         style="stop-color:#ffffff;stop-opacity:1"
         id="stop7" />
      <stop
         offset="1"
         style="stop-color:#ffffff;stop-opacity:0"
         id="stop9" />
    </linearGradient>
    <linearGradient
       gradientUnits="userSpaceOnUse"
       xlink:href="#WhiteTransparent"
       id="liquidSpecular"
       y2="76"
       x2="0"
       y1="128"
       x1="0" />
    <linearGradient
       gradientUnits="userSpaceOnUse"
       xlink:href="#WhiteTransparent"
       id="sideSpecular"
       y2="40"
       x2="60"
       y1="20"
       x1="80" />
    <clipPath
       id="clipoutline1">
      <path
         id="outline1"
         d="M 54.1,12.5 12.9,54.7 C -2.7,70.3 23,69 32.3,74.9 36.6,77.7 18.5,81.3 22.2,85 c 3.6,3.7 21.7,7.1 25.3,10.7 3.6,3.7 -7.3,7.6 -3.7,11.3 3.5,3.7 11.9,0.2 13.4,8.6 1.1,6.2 15.4,3.1 21.8,-2.2 4,-3.4 -6.9,-3.4 -3.3,-7.1 9,-9.1 17,-4.1 20.3,-12.5 1.8,-4.5 -13.6,-7.7 -9.5,-10.6 9.8,-6.9 45.8,-10.4 29.2,-27 L 73,12.5 c -5.3,-5 -14,-5 -18.9,0 z m -9.9,64.7 c 0.9,0 30.8,4 19.3,7.1 -4.4,1.2 -24.6,-7.1 -19.3,-7.1 z m 57.2,16.6 c 0,2.1 16.3,3.3 15.4,-0.5 -1.3,-6.4 -13.6,-5.9 -15.4,0.5 z m -69.5,11.1 c 3.7,3.2 9.3,-0.7 11.1,-5.2 -3.6,-4.7 -16.9,0.3 -11.1,5.2 z m 67.5,-6.7 c -4.6,4.2 0.8,8.6 5.3,5.7 1.2,-0.8 -0.1,-4.7 -5.3,-5.7 z" />
    </clipPath>
    <linearGradient
       gradientUnits="userSpaceOnUse"
       xlink:href="#linearGradient5785"
       id="linearGradient9175"
       y2="40"
       x2="60"
       y1="20"
       x1="82.118591" />
    <linearGradient
       gradientUnits="userSpaceOnUse"
       id="linearGradient5785">
      <stop
         offset="0"
         style="stop-color:#c0cdf9;stop-opacity:1"
         id="stop5787" />
      <stop
         offset="1"
         style="stop-color:#07092d;stop-opacity:0.28804347"
         id="stop5789" />
    </linearGradient>
    <filter
       color-interpolation-filters="sRGB"
       id="filter8490">
      <feGaussianBlur
         inkscape:collect="always"
         stdDeviation="2.4163949"
         id="feGaussianBlur8492" />
    </filter>
    <filter
       color-interpolation-filters="sRGB"
       id="filter6017-3">
      <feGaussianBlur
         inkscape:collect="always"
         stdDeviation="0.80546496"
         id="feGaussianBlur6019-9" />
    </filter>
    <filter
       color-interpolation-filters="sRGB"
       id="filter6031-0">
      <feGaussianBlur
         inkscape:collect="always"
         stdDeviation="3.4903482"
         id="feGaussianBlur6033-8" />
    </filter>
    <clipPath
       id="clipPath9086-1">
      <use
         xlink:href="#outline1"
         height="300"
         width="400"
         y="0"
         x="0"
         style="opacity:0.25;fill:#ffffff;fill-opacity:1"
         id="use9088-0"
         transform="translate(1.0095461e-6,0)" />
    </clipPath>
    <filter
       color-interpolation-filters="sRGB"
       id="filter8490-0">
      <feGaussianBlur
         inkscape:collect="always"
         stdDeviation="2.4163949"
         id="feGaussianBlur8492-5" />
    </filter>
    <linearGradient
       gradientTransform="matrix(1.009184,0,0,1.009184,-0.3890738,-0.3831933)"
       gradientUnits="userSpaceOnUse"
       xlink:href="#WhiteTransparent"
       id="shinySpecular-0"
       y2="60"
       x2="58"
       y1="35"
       x1="33" />
    <linearGradient
       gradientUnits="userSpaceOnUse"
       xlink:href="#WhiteTransparent"
       id="IcecapTip-0"
       y2="50"
       x2="90"
       y1="20"
       x1="60" />
    <radialGradient
       gradientTransform="matrix(1.5700516,0,0,1.0509301,-75.500107,-22.095908)"
       gradientUnits="userSpaceOnUse"
       xlink:href="#WhiteTransparent"
       id="radialGradient9177-1"
       fy="250.89737"
       fx="116.31038"
       r="30.599579"
       cy="250.89737"
       cx="116.31038" />
    <radialGradient
       gradientTransform="matrix(2.0032532,0,0,1.340898,-132.8752,-95.166065)"
       gradientUnits="userSpaceOnUse"
       xlink:href="#WhiteTransparent"
       id="radialGradient8574-0"
       fy="251.99396"
       fx="132.44434"
       r="30.599579"
       cy="251.99396"
       cx="132.44434" />
    <filter
       color-interpolation-filters="sRGB"
       id="filter8732-3"
       x="-0.078079157"
       width="1.1561583"
       y="-0.11422065"
       height="1.2284414">
      <feGaussianBlur
         inkscape:collect="always"
         stdDeviation="1.9579068"
         id="feGaussianBlur8734-5" />
    </filter>
    <radialGradient
       gradientTransform="matrix(1,0,0,0.4233577,0,97.164234)"
       gradientUnits="userSpaceOnUse"
       xlink:href="#WhiteTransparent"
       id="radialGradient8744-9"
       fy="168.5"
       fx="210.25"
       r="34.25"
       cy="168.5"
       cx="210.25" />
    <radialGradient
       gradientTransform="matrix(1,0,0,0.4233577,0,97.164234)"
       gradientUnits="userSpaceOnUse"
       xlink:href="#WhiteTransparent"
       id="radialGradient8768-6"
       fy="182.08189"
       fx="217.5"
       r="34.25"
       cy="182.08189"
       cx="217.5" />
    <filter
       color-interpolation-filters="sRGB"
       id="filter8764-9"
       x="-0.074262142"
       width="1.1485243"
       y="-0.1754123"
       height="1.3508246">
      <feGaussianBlur
         inkscape:collect="always"
         stdDeviation="2.1195652"
         id="feGaussianBlur8766-2" />
    </filter>
    <linearGradient
       gradientUnits="userSpaceOnUse"
       xlink:href="#WhiteTransparent"
       id="linearGradient8912-9"
       y2="201.5"
       x2="231.75"
       y1="195.1875"
       x1="231.625" />
    <linearGradient
       gradientUnits="userSpaceOnUse"
       xlink:href="#WhiteTransparent"
       id="linearGradient8910-3"
       y2="200.07138"
       x2="231.37646"
       y1="195.62132"
       x1="231.37646" />
    <filter
       color-interpolation-filters="sRGB"
       id="filter8906-3"
       x="-0.085441329"
       width="1.1708827"
       y="-0.27823201"
       height="1.556464">
      <feGaussianBlur
         inkscape:collect="always"
         stdDeviation="0.56515877"
         id="feGaussianBlur8908-7" />
    </filter>
    <radialGradient
       gradientTransform="matrix(1,0,0,0.1477455,0,174.56924)"
       gradientUnits="userSpaceOnUse"
       xlink:href="#WhiteTransparent"
       id="radialGradient8922-9"
       fy="204.83229"
       fx="228.21875"
       r="14.09375"
       cy="204.83229"
       cx="228.21875" />
    <filter
       color-interpolation-filters="sRGB"
       id="filter8980-1"
       x="-0.069862768"
       width="1.1397254"
       y="-0.47285891"
       height="1.9457178">
      <feGaussianBlur
         inkscape:collect="always"
         stdDeviation="0.82052366"
         id="feGaussianBlur8982-9" />
    </filter>
    <radialGradient
       gradientTransform="matrix(1,0,0,0.1477455,0,174.56924)"
       gradientUnits="userSpaceOnUse"
       xlink:href="#WhiteTransparent"
       id="radialGradient8994-0"
       fy="204.83229"
       fx="228.21875"
       r="14.09375"
       cy="204.83229"
       cx="228.21875" />
    <radialGradient
       gradientTransform="matrix(1,0,0,0.4070844,0,115.76014)"
       gradientUnits="userSpaceOnUse"
       xlink:href="#linearGradient8998-5"
       id="radialGradient9004-6"
       fy="187.86935"
       fx="89.875"
       r="22.75"
       cy="187.86935"
       cx="89.875" />
    <linearGradient
       id="linearGradient8998-5">
      <stop
         offset="0"
         style="stop-color:#ffffff;stop-opacity:0.33004925"
         id="stop9000-9" />
      <stop
         offset="1"
         style="stop-color:#ffffff;stop-opacity:0"
         id="stop9002-5" />
    </linearGradient>
    <radialGradient
       gradientTransform="matrix(1.1850746,-0.3283582,0.1228557,0.4433973,-45.068314,152.92161)"
       gradientUnits="userSpaceOnUse"
       xlink:href="#WhiteTransparent"
       id="radialGradient9046-1"
       fy="230.83626"
       fx="90.28125"
       r="10.46875"
       cy="230.83626"
       cx="90.28125" />
    <filter
       color-interpolation-filters="sRGB"
       id="filter9068-2"
       x="-0.076179281"
       width="1.1523587"
       y="-0.1655701"
       height="1.3311402">
      <feGaussianBlur
         inkscape:collect="always"
         stdDeviation="0.66458488"
         id="feGaussianBlur9070-7" />
    </filter>
    <radialGradient
       gradientTransform="matrix(1.7221535,0,0,1.6949765,-49.39526,-14.078057)"
       gradientUnits="userSpaceOnUse"
       xlink:href="#WhiteTransparent"
       id="radialGradient11553-3"
       fy="21.225746"
       fx="68.39994"
       r="54.783398"
       cy="21.225746"
       cx="68.39994" />
    <filter
       color-interpolation-filters="sRGB"
       id="filter9298-4">
      <feGaussianBlur
         inkscape:collect="always"
         stdDeviation="0.32610678"
         id="feGaussianBlur9300-4" />
    </filter>
    <linearGradient
       gradientUnits="userSpaceOnUse"
       xlink:href="#WhiteTransparent"
       id="linearGradient5905-4"
       y2="223.5"
       x2="153.5"
       y1="208.16444"
       x1="95.5" />
    <filter
       color-interpolation-filters="sRGB"
       id="filter5983-8"
       x="-0.082508981"
       width="1.165018"
       y="-0.12233575"
       height="1.2446715">
      <feGaussianBlur
         inkscape:collect="always"
         stdDeviation="3.6868363"
         id="feGaussianBlur5985-3" />
    </filter>
    <linearGradient
       gradientTransform="matrix(0.8852575,0,0,0.8852575,5.1772151,9.2293372)"
       gradientUnits="userSpaceOnUse"
       xlink:href="#linearGradient5793-9"
       id="linearGradient5801-2"
       y2="84.480316"
       x2="53.63158"
       y1="76.246338"
       x1="57.225197" />
    <linearGradient
       id="linearGradient5793-9">
      <stop
         offset="0"
         style="stop-color:#eeeeec;stop-opacity:1"
         id="stop5795-5" />
      <stop
         offset="1"
         style="stop-color:#eeeeec;stop-opacity:0"
         id="stop5797-4" />
    </linearGradient>
    <radialGradient
       gradientTransform="matrix(1.3515234,0,0,1.7175707,-63.705646,-153.95568)"
       gradientUnits="userSpaceOnUse"
       xlink:href="#WhiteTransparent"
       id="radialGradient5811-3"
       fy="214.55121"
       fx="181.22731"
       r="22.466398"
       cy="214.55121"
       cx="181.22731" />
    <filter
       color-interpolation-filters="sRGB"
       id="filter5845-5">
      <feGaussianBlur
         inkscape:collect="always"
         stdDeviation="1.2409356"
         id="feGaussianBlur5847-5" />
    </filter>
    <linearGradient
       gradientTransform="matrix(0.4927913,0,0,0.4927913,-6.0003885,-9.7225182)"
       gradientUnits="userSpaceOnUse"
       xlink:href="#WhiteTransparent"
       id="linearGradient5822-7"
       y2="187.65974"
       x2="82.754066"
       y1="180.47572"
       x1="73.712105" />
    <linearGradient
       id="linearGradient10981-3-9">
      <stop
         offset="0"
         style="stop-color:#729fcf;stop-opacity:1"
         id="stop10983-2-0" />
      <stop
         offset="1"
         style="stop-color:#729fcf;stop-opacity:0"
         id="stop10985-3-7" />
    </linearGradient>
    <filter
       color-interpolation-filters="sRGB"
       id="filter10997-7-2">
      <feGaussianBlur
         inkscape:collect="always"
         stdDeviation="2.7696726"
         id="feGaussianBlur10999-0-7" />
    </filter>
    <linearGradient
       gradientTransform="translate(-130.16572,-83.352786)"
       gradientUnits="userSpaceOnUse"
       xlink:href="#linearGradient10981-3-9"
       id="linearGradient1539"
       y2="144.5"
       x2="153.70045"
       y1="217.5"
       x1="180.81293" />
    <linearGradient
       gradientTransform="matrix(1,0,0,-1,0.14,777.638)"
       gradientUnits="userSpaceOnUse"
       id="SVGID_1_"
       y2="108.459"
       x2="464.315"
       y1="532.26703"
       x1="464.315">
      <stop
         offset="0.1497"
         style="stop-color:#2a4f84;stop-opacity:1"
         id="stop13" />
      <stop
         offset="0.38839999"
         style="stop-color:#294e82;stop-opacity:1"
         id="stop15" />
      <stop
         offset="1"
         style="stop-color:#172e4e;stop-opacity:1"
         id="stop17" />
    </linearGradient>
    <linearGradient
       gradientTransform="matrix(1,0,0,-1,-110.8195,852.7348)"
       gradientUnits="userSpaceOnUse"
       xlink:href="#SVGID_1_"
       id="linearGradient3057"
       y2="108.459"
       x2="464.315"
       y1="532.26703"
       x1="464.315" />
  </defs>
  <sodipodi:namedview
     id="base"
     pagecolor="#ffffff"
     bordercolor="#666666"
     borderopacity="1.0"
     inkscape:pageopacity="0.0"
     inkscape:pageshadow="2"
     inkscape:zoom="1.4"
     inkscape:cx="82.621627"
     inkscape:cy="141.43878"
     inkscape:document-units="mm"
     inkscape:current-layer="layer1"
     showgrid="false"
     units="px"
     inkscape:window-width="1920"
     inkscape:window-height="990"
     inkscape:window-x="0"
     inkscape:window-y="27"
     inkscape:window-maximized="1" />
  <metadata
     id="metadata5">
    <rdf:RDF>
      <cc:Work
         rdf:about="">
        <dc:format>image/svg+xml</dc:format>
        <dc:type
           rdf:resource="http://purl.org/dc/dcmitype/StillImage" />
        <dc:title></dc:title>
      </cc:Work>
    </rdf:RDF>
  </metadata>
  <g
     inkscape:label="Layer 1"
     inkscape:groupmode="layer"
     id="layer1"
     transform="translate(0,-229.26665)">
    <g
       id="g1804"
       transform="matrix(0.13456246,0,0,0.13456246,7.4092976,246.88799)">
	<path
   id="path1794"
   d="M 60.6,187.8 C 70.8,175.6 72,163 64.1,139.6 c -5,-14.8 -13.3,-26.2 -7.2,-35.4 6.5,-9.8 20.3,-0.3 8.8,12.8 l 2.3,1.6 c 13.8,1.6 20.6,-17.3 10.3,-22.7 -27.2,-14.2 -51,13.1 -40.5,44.7 4.5,13.4 10.8,27.6 5.7,38.9 -4.4,9.7 -12.9,15.4 -18.6,15.6 -11.9,0.6 -4,-26.7 9.7,-33.5 1.2,-0.6 2.9,-1.4 1.3,-3.4 C 19,156.3 9.1,164.1 3.4,175 c -16.6,31.7 31.5,43.4 57.2,12.8 z"
   inkscape:connector-curvature="0"
   style="fill:#333333" />

	<path
   id="path1796"
   d="m 357.6,94.6 c 3.9,9.6 9.8,19.1 6.3,27.5 -2.9,7.2 -6.7,10.2 -10.9,10.9 -5.9,1 -4.3,-17.5 5.8,-23 0.9,-0.5 2.2,-2.9 1,-4.3 -12.8,-0.7 -20,5.4 -23.9,13.5 -11.3,23.7 25.6,30.2 43.7,6.9 7.2,-9.3 7.5,-18.5 0.6,-35.2 -4.4,-10.6 -11.1,-18.5 -6.9,-25.5 4.5,-7.4 15.3,-1 7.2,8.9 l 1.8,1 c 10.5,0.6 14.8,-13.4 6.8,-16.9 -21.1,-9 -40.8,13.7 -31.5,36.2 z"
   inkscape:connector-curvature="0"
   style="fill:#333333" />

	<path
   id="path1798"
   d="m 224,69.3 c -7.3,-5.8 -27.8,3.9 -33.6,18.3 -7.3,18.3 -18.1,45 -28.7,56.7 -11.2,12.3 -12.3,2.8 -11.2,-4.3 2.6,-16.7 18.9,-55.4 27.8,-66.3 -3.3,-4.9 -24.9,-4.2 -39.9,19.1 -5.6,8.8 -18.4,38.1 -32.6,61.2 -3.1,5 -7,1.5 -4,-10.2 3.4,-13.5 13.4,-50.6 26.3,-79.8 33.8,-6.7 69.7,-11.4 97.2,-11.5 3.7,-1 6.2,-4.3 0,-4.5 -23.7,-0.8 -59.3,2 -92.6,6.2 6.4,-12.8 13.3,-23 20.3,-27.3 -7.6,-4.8 -23,-2.9 -31.8,10.1 -3.9,5.8 -7.8,12.8 -11.5,20.4 -24.4,3.8 -45.3,8.1 -55.9,12.1 -11,4.2 -9.8,17.5 -3.1,15 13.9,-5.2 32.7,-10.6 53.6,-15.4 -13.3,30 -23.7,65.4 -26.2,79.8 -6.2,35 15.5,34.8 26.1,21 11.5,-15.1 35.5,-68.2 39.2,-73.8 1.1,-1.9 2.6,-0.9 1.8,0.8 -26.8,53.5 -24.5,74.2 -2.8,69.6 9.8,-2.1 26.7,-18.9 31.1,-27.6 0.9,-2.1 2.8,-1.9 2.4,-1 -17,44.1 -38.6,79.8 -53.1,91 -13.2,10.1 -23,-11.8 23.7,-43.2 6.9,-4.7 3.7,-11.1 -4.1,-8.9 0,0 0,0 0,0 -24.1,3.8 -93.1,25.7 -123.4,46.7 -2.3,1.6 -4.4,2.9 -4.3,6.2 0.1,1.9 3.4,1.2 5,0.2 39.2,-23.5 71.3,-32.7 108.1,-40.4 0.5,0.2 1.1,0.3 1.6,0.1 1.7,-0.4 1.6,0.5 0.5,1.2 -2.5,1.4 -5,2.7 -5.6,2.9 -24.8,9.7 -39.8,31.1 -34.5,42 4.5,9.4 28.8,6 40.3,-0.2 28.2,-15.3 48.7,-45.3 62.7,-86.7 C 205,112.1 220.4,70.5 224,69.3 Z"
   inkscape:connector-curvature="0"
   style="fill:#333333" />

	<path
   id="path1800"
   d="m 387.9,154 c -45.9,-6 -144.9,2 -188.6,13.6 -13,3.4 -9.4,10.3 -2.8,9 0.1,0 2.9,-0.7 3,-0.7 35.9,-7 123,-13.1 173.8,-3.4 6.1,1.1 24.4,-17.2 14.6,-18.5 z"
   inkscape:connector-curvature="0"
   style="fill:#333333" />

	<path
   id="path1802"
   d="m 236.8,148.6 c 12.8,-6.4 31.8,-46 44.3,-67.7 0.9,-1.6 2.5,-0.3 1.6,0.8 -31.6,54.4 -18.2,60.7 -5.7,59.9 16.7,-1 32.1,-25 35.5,-30.4 1.4,-2.1 2.2,-0.4 1.4,1.1 -0.8,2.5 -3.7,6.9 -6.4,12.9 -3.8,8.5 0.2,11.8 3.5,13.3 5.2,2.5 19.4,0.9 21.6,-7.8 -14.2,-0.3 19.8,-67.3 23.3,-71.4 -9.5,-5.5 -24.2,0.5 -30.9,13.7 -14.3,28.3 -26.3,51.1 -33.8,51.5 -14.6,0.8 16.8,-63.1 21.9,-65.1 -3.1,-4.5 -23,-2.6 -34.1,14.6 -4,6.2 -28.4,49.4 -34.4,56.5 -10.6,12.6 -11.4,1.8 -8.4,-10.8 1,-4.3 2.7,-9.8 4.9,-15.9 7,-15.8 14.5,-20.8 19.1,-25.9 30.9,-34.3 48.6,-62.1 41.6,-73 -6.2,-9.7 -26.9,-5.4 -40.2,14.6 -24.5,36.7 -47.1,87 -50,110 -2.8,23 13.9,24.7 25.2,19.1 z m 13,-67.3 c 1.1,-2.5 1.8,-3.2 3.7,-7.4 0,0 0,0 0,0 11,-24.2 24.8,-49.7 34.3,-61.6 5.9,-6.2 14.2,2.2 -0.8,25.2 -8.8,13.6 -18.8,26.1 -29.7,37.1 0,0 0,0 0,0.1 -2.8,3.1 -5.3,5.7 -6.4,7.2 -0.8,1 -1.7,0.8 -1.1,-0.6 z"
   inkscape:connector-curvature="0"
   style="fill:#333333" />

</g>
  </g>
  <style
     id="style915"
     type="text/css">
	.st0{fill:#DD0031;}
	.st1{fill:#C3002F;}
	.st2{fill:#FFFFFF;}
</style>
  <style
     id="style26"
     type="text/css" />
</svg>
