<?xml version="1.0" encoding="UTF-8" standalone="no"?>
<!-- Generator: Adobe Illustrator 22.0.1, SVG Export Plug-In . SVG Version: 6.00 Build 0)  -->

<svg
   xmlns:dc="http://purl.org/dc/elements/1.1/"
   xmlns:cc="http://creativecommons.org/ns#"
   xmlns:rdf="http://www.w3.org/1999/02/22-rdf-syntax-ns#"
   xmlns:svg="http://www.w3.org/2000/svg"
   xmlns="http://www.w3.org/2000/svg"
   xmlns:sodipodi="http://sodipodi.sourceforge.net/DTD/sodipodi-0.dtd"
   xmlns:inkscape="http://www.inkscape.org/namespaces/inkscape"
   version="1.1"
   id="ps_x5F_cc_x5F_app_x5F_RGB.svg"
   x="0px"
   y="0px"
   width="256"
   height="256"
   viewBox="0 0 256 256"
   xml:space="preserve"
   sodipodi:docname="Adobe_XD_CC_icon.svg"
   inkscape:version="0.92.4 (33fec40, 2019-01-16)"><metadata
   id="metadata13"><rdf:RDF><cc:Work
       rdf:about=""><dc:format>image/svg+xml</dc:format><dc:type
         rdf:resource="http://purl.org/dc/dcmitype/StillImage" /><dc:title></dc:title></cc:Work></rdf:RDF></metadata><defs
   id="defs11" /><sodipodi:namedview
   pagecolor="#ffffff"
   bordercolor="#666666"
   borderopacity="1"
   objecttolerance="10"
   gridtolerance="10"
   guidetolerance="10"
   inkscape:pageopacity="0"
   inkscape:pageshadow="2"
   inkscape:window-width="1920"
   inkscape:window-height="990"
   id="namedview9"
   showgrid="false"
   inkscape:zoom="1.008547"
   inkscape:cx="1.0169492"
   inkscape:cy="117"
   inkscape:window-x="0"
   inkscape:window-y="27"
   inkscape:window-maximized="1"
   inkscape:current-layer="ps_x5F_cc_x5F_app_x5F_RGB.svg" />


<g
   id="g823"
   transform="matrix(0.83333333,0,0,0.83333333,28,30.5)"><path
     id="path2"
     d="M 197.5,234 H 42.5 C 19,234 0,215 0,191.5 V 42.5 C 0,19 19,0 42.5,0 h 155 C 221,0 240,19 240,42.5 v 149 C 240,215 221,234 197.5,234 Z"
     style="fill:#ff26be"
     inkscape:connector-curvature="0" /><path
     id="path4"
     d="M 193.7,224 H 46.3 C 26.3,224 10,207.7 10,187.7 V 46.3 C 10,26.3 26.3,10 46.3,10 h 147.3 c 20.1,0 36.3,16.3 36.3,36.3 V 187.6 C 230,207.7 213.7,224 193.7,224 Z"
     style="fill:#2e001f"
     inkscape:connector-curvature="0" /><path
     id="path6"
     d="m 94.9,109.5 28,53.8 c 0.5,0.8 0.2,1.6 -0.6,1.6 h -17.4 c -1.1,0 -1.6,-0.3 -2.1,-1.3 C 96.4,150.4 89.9,137.2 83.2,123 H 83 c -6,13.4 -12.6,27.5 -19,40.7 -0.5,0.8 -1,1.1 -1.8,1.1 H 45.7 c -1,0 -1.1,-0.8 -0.6,-1.4 L 72.5,111.2 46,58.4 C 45.4,57.6 46,57 46.6,57 h 17.2 c 1,0 1.4,0.2 1.8,1.1 6.3,13.2 12.7,26.8 18.7,40.1 h 0.2 c 5.8,-13.2 12.2,-26.9 18.4,-40 0.5,-0.8 0.8,-1.3 1.8,-1.3 h 16.1 c 0.8,0 1.1,0.6 0.6,1.4 z m 32.9,16.3 c 0,-23.3 15.5,-41.5 40.1,-41.5 2.1,0 3.2,0 5.2,0.2 V 58 c 0,-0.6 0.5,-1 1,-1 h 15.8 c 0.8,0 1,0.3 1,0.8 v 91.8 c 0,2.7 0,6.1 0.5,9.8 0,0.6 -0.2,0.8 -0.8,1.1 -8.4,4 -17.2,5.8 -25.6,5.8 -21.7,0.1 -37.2,-13.3 -37.2,-40.5 z m 45.3,-25.6 c -1.4,-0.6 -3.4,-1 -5.8,-1 -12.6,0 -21.4,9.7 -21.4,25.8 0,18.4 9,25.8 20.3,25.8 2.4,0 5,-0.3 6.9,-1.1 z"
     style="fill:#ffd9f2"
     inkscape:connector-curvature="0" /></g>
</svg>